<svg xmlns="http://www.w3.org/2000/svg"  viewBox="0 0 50 50" width="50px" height="50px"><path d="M25 10c3.479 0 6.459-2.599 6.931-6.044l.118-.859-.833-.238c-3.987-1.14-8.442-1.14-12.43 0l-.833.238.118.859C18.541 7.401 21.521 10 25 10zM9.44 16.435c1.804 0 3.602-.688 4.955-2.036l.003-.003c2.458-2.469 2.723-6.417.617-9.182l-.528-.693-.759.428c-3.672 2.072-6.708 5.107-8.78 8.78l-.428.759.693.528C6.463 15.967 7.954 16.435 9.44 16.435zM10 25c0-3.479-2.599-6.459-6.044-6.931l-.859-.118-.238.834C2.289 20.781 2 22.872 2 25s.289 4.219.858 6.214l.238.834.859-.118C7.401 31.459 10 28.479 10 25zM5.214 34.984l-.693.528.428.759c2.071 3.672 5.107 6.708 8.78 8.78l.759.428.528-.693c2.106-2.765 1.841-6.712-.62-9.185C11.927 33.144 7.98 32.878 5.214 34.984zM25 40c-3.479 0-6.459 2.599-6.931 6.044l-.118.859.834.238C20.781 47.711 22.872 48 25 48s4.219-.289 6.214-.858l.834-.238-.118-.859C31.459 42.599 28.479 40 25 40zM35.602 35.604c-2.458 2.469-2.723 6.417-.617 9.182l.528.693.759-.428c3.672-2.072 6.708-5.108 8.78-8.78l.428-.759-.693-.528C42.021 32.879 38.073 33.145 35.602 35.604zM47.142 18.786l-.238-.834-.859.118C42.599 18.541 40 21.521 40 25s2.599 6.459 6.044 6.931l.859.118.238-.834C47.711 29.219 48 27.128 48 25S47.711 20.781 47.142 18.786zM40.56 16.435c1.486 0 2.977-.468 4.227-1.419l.693-.528-.428-.759c-2.072-3.672-5.107-6.708-8.78-8.78l-.759-.428-.528.693c-2.106 2.765-1.841 6.712.62 9.185C36.958 15.746 38.756 16.435 40.56 16.435zM25 13A2 2 0 1025 17 2 2 0 1025 13zM17.929 15.928999999999998A2 2 0 1017.929 19.929 2 2 0 1017.929 15.928999999999998zM15 23A2 2 0 1015 27 2 2 0 1015 23zM17.929 30.070999999999998A2 2 0 1017.929 34.071 2 2 0 1017.929 30.070999999999998zM25 33A2 2 0 1025 37 2 2 0 1025 33zM32.071 30.070999999999998A2 2 0 1032.071 34.071 2 2 0 1032.071 30.070999999999998zM35 23A2 2 0 1035 27 2 2 0 1035 23zM32.071 15.928999999999998A2 2 0 1032.071 19.929 2 2 0 1032.071 15.928999999999998z"/></svg>
